<?xml version="1.0" encoding="UTF-8"?>
<!DOCTYPE svg PUBLIC "-//W3C//DTD SVG 1.1//EN" "http://www.w3.org/Graphics/SVG/1.1/DTD/svg11.dtd">
<!-- Creator: CorelDRAW X8 -->
<svg xmlns="http://www.w3.org/2000/svg" xml:space="preserve" width="150mm" height="121mm" version="1.1" style="shape-rendering:geometricPrecision; text-rendering:geometricPrecision; image-rendering:optimizeQuality; fill-rule:evenodd; clip-rule:evenodd"
viewBox="0 0 15000 12100"
 xmlns:xlink="http://www.w3.org/1999/xlink">
 <defs>
  <style type="text/css">
   <![CDATA[
    .str0 {stroke:#454545;stroke-width:141.11}
    .fil0 {fill:none}
    .fil1 {fill:#454545}
   ]]>
  </style>
 </defs>
 <g id="Vrstva_x0020_1">
  <metadata id="CorelCorpID_0Corel-Layer"/>
  <path class="fil0 str0" d="M13422 8625l-10602 1680c-945,149 -1831,-504 -1968,-1450l-742 -5096c-138,-946 522,-1844 1468,-1993l10601 -1679c946,-150 1832,502 1969,1448l742 5096c138,947 -522,1844 -1468,1994l0 0z"/>
  <path class="fil1" d="M12072 12033l-10119 2c-933,0 -1688,-763 -1676,-1697l28 -2259 178 1231c145,996 1077,1682 2071,1524l11152 -1765c33,-6 65,-12 99,-19l-16 1286c-12,934 -784,1697 -1717,1697l0 0z"/>
 </g>
</svg>
