<svg xmlns="http://www.w3.org/2000/svg" xml:space="preserve" width="150mm" height="121mm" style="shape-rendering:geometricPrecision;text-rendering:geometricPrecision;image-rendering:optimizeQuality;fill-rule:evenodd;clip-rule:evenodd" viewBox="0 0 15000 12100"><path d="M13422 8625 2820 10305c-945 149-1831-504-1968-1450L110 3759c-138-946 522-1844 1468-1993L12179 87c946-150 1832 502 1969 1448l742 5096c138 947-522 1844-1468 1994z" style="fill:none;stroke:#454545;stroke-width:141.11"/><path d="m12072 12033-10119 2c-933 0-1688-763-1676-1697l28-2259 178 1231c145 996 1077 1682 2071 1524l11152-1765c33-6 65-12 99-19l-16 1286c-12 934-784 1697-1717 1697z" style="fill:#454545"/></svg>