<svg xmlns="http://www.w3.org/2000/svg" xml:space="preserve" width="145mm" height="87mm" style="shape-rendering:geometricPrecision;text-rendering:geometricPrecision;image-rendering:optimizeQuality;fill-rule:evenodd;clip-rule:evenodd" viewBox="0 0 14500 8700"><path d="M4780 2948c0 810-624 1468-1394 1468-771 0-1395-658-1395-1468 0-220 46-427 127-614H79v6300h6600V6656c166 63 348 96 537 96 811 0 1469-624 1469-1394 0-771-658-1395-1469-1395-189 0-371 34-537 96V2334H4654c81 187 126 394 126 614z" style="fill:none;stroke:#454545;stroke-width:141.11"/><path d="M10202 5358c0 770-657 1394-1467 1394-219 0-427-45-613-126v2008h6299V2034h-1848c54-156 83-324 83-499 0-812-624-1469-1395-1469S9866 723 9866 1535c0 175 29 343 83 499H8122v2056c186-82 394-127 613-127 810 0 1467 624 1467 1395z" style="fill:#454545"/></svg>