<?xml version="1.0" encoding="UTF-8"?>
<!DOCTYPE svg PUBLIC "-//W3C//DTD SVG 1.1//EN" "http://www.w3.org/Graphics/SVG/1.1/DTD/svg11.dtd">
<!-- Creator: CorelDRAW X7 -->
<svg xmlns="http://www.w3.org/2000/svg" xml:space="preserve" width="136mm" height="136mm" version="1.1" style="shape-rendering:geometricPrecision; text-rendering:geometricPrecision; image-rendering:optimizeQuality; fill-rule:evenodd; clip-rule:evenodd"
viewBox="0 0 13600 13600"
 xmlns:xlink="http://www.w3.org/1999/xlink">
 <defs>
  <style type="text/css">
   <![CDATA[
    .str0 {stroke:#454545;stroke-width:105.83}
    .fil0 {fill:#454545}
    .fil2 {fill:#454545}
    .fil1 {fill:white}
   ]]>
  </style>
 </defs>
 <g id="Vrstva_x0020_1">
  <metadata id="CorelCorpID_0Corel-Layer"/>
  <g id="_1433445419136">
   <rect class="fil0" x="100" y="99" width="6500" height="6500" rx="400" ry="365"/>
   <rect class="fil1 str0" x="7000" y="99" width="6500" height="6500" rx="400" ry="365"/>
   <rect class="fil1 str0" x="100" y="7001" width="6500" height="6500" rx="400" ry="365"/>
   <rect class="fil0" x="7000" y="6999" width="6500" height="6500" rx="400" ry="365"/>
   <path class="fil2" d="M9475 1519l2546 -413 0 3451c0,286 -213,514 -546,598 -365,90 -716,-63 -787,-342 -70,-281 169,-581 534,-672 165,-41 327,-32 463,15l0 -2079 -1866 341 -8 2587c-2,244 -223,485 -541,564 -360,90 -738,-82 -779,-338 -69,-277 167,-574 529,-665 162,-41 322,-32 455,15l0 -3062z"/>
   <path class="fil2" d="M2575 8420l2546 -413 0 3451c0,286 -213,514 -545,598 -366,90 -717,-62 -788,-342 -70,-280 169,-581 534,-672 165,-41 327,-32 463,16l0 -2080 -1866 341 -8 2587c-2,244 -223,485 -541,564 -360,90 -738,-81 -779,-338 -69,-277 167,-574 529,-665 162,-40 322,-32 455,15l0 -3062z"/>
  </g>
 </g>
</svg>
