<svg xmlns="http://www.w3.org/2000/svg" xml:space="preserve" width="146mm" height="142mm" style="shape-rendering:geometricPrecision;text-rendering:geometricPrecision;image-rendering:optimizeQuality;fill-rule:evenodd;clip-rule:evenodd" viewBox="0 0 14600 14200"><path d="m14458 6643-3533 4949c-70 62-74 66-1116 1003-280 248-647 371-957 150-309-221-323-613-168-953l616-1360 3655-5120c182-254 537-315 792-134l700 500c254 182 315 540 133 795l-122 170z" style="fill:#454545"/><path d="M9098 14092H1771c-859 0-1562-703-1562-1563V1655C209 795 912 92 1771 92h8875c859 0 1563 703 1563 1563v3509L9063 9618l-1004 2297c-249 568-202 1222 372 1569 571 345 1221 115 1704-314 989-889 1881-1701 1926-1740l148-210v1309c0 860-704 1563-1563 1563H9098" style="fill:none;stroke:#454545;stroke-width:141.11"/></svg>