<?xml version="1.0" encoding="UTF-8"?>
<!DOCTYPE svg PUBLIC "-//W3C//DTD SVG 1.1//EN" "http://www.w3.org/Graphics/SVG/1.1/DTD/svg11.dtd">
<!-- Creator: CorelDRAW X8 -->
<svg xmlns="http://www.w3.org/2000/svg" xml:space="preserve" width="146mm" height="142mm" version="1.1" style="shape-rendering:geometricPrecision; text-rendering:geometricPrecision; image-rendering:optimizeQuality; fill-rule:evenodd; clip-rule:evenodd"
viewBox="0 0 14600 14200"
 xmlns:xlink="http://www.w3.org/1999/xlink">
 <defs>
  <style type="text/css">
   <![CDATA[
    .str0 {stroke:#454545;stroke-width:141.11}
    .fil1 {fill:none}
    .fil0 {fill:#454545}
   ]]>
  </style>
 </defs>
 <g id="Vrstva_x0020_1">
  <metadata id="CorelCorpID_0Corel-Layer"/>
  <path class="fil0" d="M14458 6643l-3533 4949c-70,62 -74,66 -1116,1003 -280,248 -647,371 -957,150l0 0c-309,-221 -323,-613 -168,-953l616 -1360 3655 -5120c182,-254 537,-315 792,-134l700 500c254,182 315,540 133,795l-122 170z"/>
  <path class="fil1 str0" d="M9098 14092l-7327 0c-859,0 -1562,-703 -1562,-1563l0 -10874c0,-860 703,-1563 1562,-1563l8875 0c859,0 1563,703 1563,1563l0 3509 -3146 4454 -1004 2297c-249,568 -202,1222 372,1569 571,345 1221,115 1704,-314 989,-889 1881,-1701 1926,-1740l148 -210 0 1309c0,860 -704,1563 -1563,1563l-1548 0"/>
 </g>
</svg>
